HIERARCHY
ROOT hip
{
  OFFSET 0 0 0
  CHANNELS 6 Xposition Yposition Zposition Zrotation Yrotation Xrotation
  JOINT abdomen
  {
    OFFSET 0 20.6881 -0.73152
    CHANNELS 3 Zrotation Xrotation Yrotation
    JOINT chest
    {
      OFFSET 0 11.7043 -0.48768
      CHANNELS 3 Zrotation Xrotation Yrotation
      JOINT neck
      {
        OFFSET 0 22.1894 -2.19456
        CHANNELS 3 Zrotation Xrotation Yrotation
        JOINT head
        {
          OFFSET -0.24384 7.07133 1.2192
          CHANNELS 3 Zrotation Xrotation Yrotation
          JOINT leftEye
          {
            OFFSET 4.14528 8.04674 8.04672
            CHANNELS 3 Zrotation Xrotation Yrotation
            End Site
            {
              OFFSET 1 0 0
            }
          }
          JOINT rightEye
          {
            OFFSET -3.6576 8.04674 8.04672
            CHANNELS 3 Zrotation Xrotation Yrotation
            End Site
            {
              OFFSET 1 0 0
            }
          }
        }
      }
      JOINT rCollar
      {
        OFFSET -2.68224 19.2634 -4.8768
        CHANNELS 3 Zrotation Xrotation Yrotation
        JOINT rShldr
        {
          OFFSET -8.77824 -1.95073 1.46304
          CHANNELS 3 Zrotation Xrotation Yrotation
          JOINT rForeArm
          {
            OFFSET -28.1742 -1.7115 0.48768
            CHANNELS 3 Zrotation Xrotation Yrotation
            JOINT rHand
            {
              OFFSET -22.5879 0.773209 7.07136
              CHANNELS 3 Zrotation Xrotation Yrotation
              JOINT rThumb1
              {
                OFFSET -1.2192 -0.487915 3.41376
                CHANNELS 3 Zrotation Xrotation Yrotation
                JOINT rThumb2
                {
                  OFFSET -3.37035 -0.52449 3.41376
                  CHANNELS 3 Zrotation Xrotation Yrotation
                  End Site
                  {
                    OFFSET -1.78271 -1.18214 1.43049
                  }
                }
              }
              JOINT rIndex1
              {
                OFFSET -7.75947 0.938293 5.60832
                CHANNELS 3 Zrotation Xrotation Yrotation
                JOINT rIndex2
                {
                  OFFSET -2.54057 -0.884171 1.56538
                  CHANNELS 3 Zrotation Xrotation Yrotation
                  End Site
                  {
                    OFFSET -1.62519 -0.234802 1.16502
                  }
                }
              }
              JOINT rMid1
              {
                OFFSET -8.24714 1.18213 3.41376
                CHANNELS 3 Zrotation Xrotation Yrotation
                JOINT rMid2
                {
                  OFFSET -3.10165 -0.590103 1.0647
                  CHANNELS 3 Zrotation Xrotation Yrotation
                  End Site
                  {
                    OFFSET -2.48547 -0.328903 0.83742
                  }
                }
              }
              JOINT rRing1
              {
                OFFSET -8.82822 0.546677 1.51678
                CHANNELS 3 Zrotation Xrotation Yrotation
                JOINT rRing2
                {
                  OFFSET -2.60934 -0.819778 -0.0198488
                  CHANNELS 3 Zrotation Xrotation Yrotation
                  End Site
                  {
                    OFFSET -2.33842 -0.294052 0.168128
                  }
                }
              }
              JOINT rPinky1
              {
                OFFSET -8.27202 -0.0477905 -0.4584
                CHANNELS 3 Zrotation Xrotation Yrotation
                JOINT rPinky2
                {
                  OFFSET -1.82734 -0.647385 -0.700984
                  CHANNELS 3 Zrotation Xrotation Yrotation
                  End Site
                  {
                    OFFSET -1.69225 -0.51767 -0.607171
                  }
                }
              }
            }
          }
        }
      }
      JOINT lCollar
      {
        OFFSET 2.68224 19.2634 -4.8768
        CHANNELS 3 Zrotation Xrotation Yrotation
        JOINT lShldr
        {
          OFFSET 8.77824 -1.95073 1.46304
          CHANNELS 3 Zrotation Xrotation Yrotation
          JOINT lForeArm
          {
            OFFSET 28.1742 -1.7115 0.48768
            CHANNELS 3 Zrotation Xrotation Yrotation
            JOINT lHand
            {
              OFFSET 22.5879 0.773209 7.07136
              CHANNELS 3 Zrotation Xrotation Yrotation
              JOINT lThumb1
              {
                OFFSET 1.2192 -0.487915 3.41376
                CHANNELS 3 Zrotation Xrotation Yrotation
                JOINT lThumb2
                {
                  OFFSET 3.37035 -0.52449 3.41376
                  CHANNELS 3 Zrotation Xrotation Yrotation
                  End Site
                  {
                    OFFSET 1.78271 -1.18214 1.43049
                  }
                }
              }
              JOINT lIndex1
              {
                OFFSET 7.75947 0.938293 5.60832
                CHANNELS 3 Zrotation Xrotation Yrotation
                JOINT lIndex2
                {
                  OFFSET 2.54057 -0.884171 1.56538
                  CHANNELS 3 Zrotation Xrotation Yrotation
                  End Site
                  {
                    OFFSET 1.62519 -0.234802 1.16502
                  }
                }
              }
              JOINT lMid1
              {
                OFFSET 8.24714 1.18213 3.41376
                CHANNELS 3 Zrotation Xrotation Yrotation
                JOINT lMid2
                {
                  OFFSET 3.10165 -0.590103 1.0647
                  CHANNELS 3 Zrotation Xrotation Yrotation
                  End Site
                  {
                    OFFSET 2.48547 -0.328903 0.83742
                  }
                }
              }
              JOINT lRing1
              {
                OFFSET 8.82822 0.546677 1.51678
                CHANNELS 3 Zrotation Xrotation Yrotation
                JOINT lRing2
                {
                  OFFSET 2.60934 -0.819778 -0.0198488
                  CHANNELS 3 Zrotation Xrotation Yrotation
                  End Site
                  {
                    OFFSET 2.33842 -0.294052 0.168128
                  }
                }
              }
              JOINT lPinky1
              {
                OFFSET 8.27202 -0.0477905 -0.4584
                CHANNELS 3 Zrotation Xrotation Yrotation
                JOINT lPinky2
                {
                  OFFSET 1.82734 -0.647385 -0.700984
                  CHANNELS 3 Zrotation Xrotation Yrotation
                  End Site
                  {
                    OFFSET 1.69225 -0.51767 -0.607171
                  }
                }
              }
            }
          }
        }
      }
    }
  }
  JOINT rButtock
  {
    OFFSET -8.77824 4.35084 1.2192
    CHANNELS 3 Zrotation Xrotation Yrotation
    JOINT rThigh
    {
      OFFSET 0 -1.70687 -2.19456
      CHANNELS 3 Zrotation Xrotation Yrotation
      JOINT rShin
      {
        OFFSET 0 -36.8199 0.73152
        CHANNELS 3 Zrotation Xrotation Yrotation
        JOINT rFoot
        {
          OFFSET 0.73152 -45.1104 -5.12064
          CHANNELS 3 Zrotation Xrotation Yrotation
          End Site
          {
            OFFSET -1.1221 -3.69964 12.103
          }
        }
      }
    }
  }
  JOINT lButtock
  {
    OFFSET 8.77824 4.35084 1.2192
    CHANNELS 3 Zrotation Xrotation Yrotation
    JOINT lThigh
    {
      OFFSET 0 -1.70687 -2.19456
      CHANNELS 3 Zrotation Xrotation Yrotation
      JOINT lShin
      {
        OFFSET 0 -36.8199 0.73152
        CHANNELS 3 Zrotation Xrotation Yrotation
        JOINT lFoot
        {
          OFFSET -0.73152 -45.1104 -5.12064
          CHANNELS 3 Zrotation Xrotation Yrotation
          End Site
          {
            OFFSET 1.1221 -3.69964 12.103
          }
        }
      }
    }
  }
}
MOTION
Frames:	4
Frame Time:	0.00833333
-14.2255 81.5969 173.261 361.706 -7.4469 -330.133 -3.23346 -29.3716 -1.71806 1.7627 -5.0691 -0.160415 -9.65688 6.6523 -8.18266 20.8285 28.0686 -20.6509 -0.0 0.0 0.0 -0.0 0.0 0.0 9.43514e-14 -9.93918e-14 -3.16565e-14 87.4808 29.395 -25.2565 -15.3662 -8.11143 28.3457 -0.0996094 8.96545 1.2705 -2.25402e-09 4.42103e-10 4.34642e-10 -3.89237e-09 7.5952e-10 7.74455e-10 -2.25402e-09 4.42097e-10 4.3462e-10 7.73091 5.47488 0.417314 -2.25402e-09 4.42095e-10 4.34639e-10 2.90554 0.965183 0.102902 -2.25401e-09 4.42097e-10 4.3464e-10 10.2786 0.731801 0.0259123 -2.25403e-09 4.42099e-10 4.34655e-10 2.22167 -0.733487 -0.20892 9.43014e-14 -9.93931e-14 -3.19546e-14 -74.8888 29.1786 -0.533025 20.5968 -13.7813 -40.1489 0.13797 -10.5306 1.49704 -7.57753e-10 -2.58517e-09 4.53709e-10 -1.31783e-09 -4.49487e-09 7.75662e-10 -7.57768e-10 -2.58517e-09 4.53719e-10 -7.73091 5.47488 -0.417314 -7.57756e-10 -2.58517e-09 4.53716e-10 -2.90554 0.965183 -0.102902 -7.57763e-10 -2.58517e-09 4.5371e-10 -10.2786 0.731801 -0.0259123 -7.57742e-10 -2.58517e-09 4.53709e-10 -2.22167 -0.733487 0.20892 -2.03217e-16 0.0 -3.88251e-19 5.02294 -63.9152 7.79005 -0.233929 35.1847 0.720152 -4.36531 -6.48424 -18.8324 2.03217e-16 0.0 3.88251e-19 -11.4506 -44.322 -5.04604 0.138739 31.8451 -0.759511 3.97613 -11.3819 12.4436
-14.2404 81.7018 173.74 361.796 -7.5948 -330.131 -3.23235 -29.4537 -1.80457 1.79144 -5.0787 -0.187478 -9.79592 6.68711 -8.29859 21.0211 27.7333 -20.856 -0.0 0.0 0.0 -0.0 0.0 0.0 8.28072e-14 3.82419e-14 -1.22103e-13 87.6689 29.4099 -25.3629 -15.3507 -8.09761 28.3135 -0.100579 9.00791 1.27662 -1.46848e-09 2.65728e-10 -6.99829e-11 -2.53834e-09 4.57034e-10 -1.05643e-10 -1.46848e-09 2.65722e-10 -7.00066e-11 7.73091 5.47488 0.417314 -1.46848e-09 2.6572e-10 -6.99877e-11 2.90554 0.965183 0.102902 -1.46848e-09 2.65722e-10 -6.99883e-11 10.2786 0.731801 0.0259123 -1.46849e-09 2.65723e-10 -6.99744e-11 2.22167 -0.733487 -0.20892 8.27502e-14 3.82404e-14 -1.22398e-13 -75.1034 29.3835 -0.401042 20.5665 -13.7413 -40.0736 0.135355 -10.432 1.48271 -1.71258e-10 -7.57786e-10 8.05849e-11 -2.98968e-10 -1.3188e-09 1.34568e-10 -1.71271e-10 -7.57791e-10 8.05939e-11 -7.73091 5.47488 -0.417314 -1.7126e-10 -7.5779e-10 8.05909e-11 -2.90554 0.965183 -0.102902 -1.71267e-10 -7.57791e-10 8.05855e-11 -10.2786 0.731801 -0.0259123 -1.71249e-10 -7.57788e-10 8.0583e-11 -2.22167 -0.733487 0.20892 -2.03217e-16 0.0 -3.88251e-19 5.62458 -63.5698 9.25274 -0.207452 33.4318 0.683323 -4.69114 -6.84794 -19.9333 2.03217e-16 0.0 3.88251e-19 -11.367 -43.6682 -4.76035 0.132412 31.2274 -0.744074 3.9615 -11.3524 12.4227
-14.2601 81.8004 174.225 361.888 -7.7449 -330.132 -3.24616 -29.5443 -1.90042 1.82887 -5.08328 -0.215793 -9.93771 6.71418 -8.41189 21.2059 27.4182 -21.0559 -0.0 0.0 0.0 -0.0 0.0 0.0 4.5823e-14 1.83578e-13 -2.18551e-13 87.8375 29.4295 -25.4557 -15.343 -8.09075 28.2975 -0.101031 9.02791 1.2795 -2.1737e-10 -7.2263e-11 -5.14668e-10 -3.79124e-10 -1.24401e-10 -8.8652e-10 -2.17368e-10 -7.22672e-11 -5.14693e-10 7.73091 5.47488 0.417314 -2.17372e-10 -7.22689e-11 -5.14675e-10 2.90554 0.965183 0.102902 -2.17371e-10 -7.22667e-11 -5.14679e-10 10.2786 0.731801 0.0259123 -2.17376e-10 -7.22684e-11 -5.14667e-10 2.22167 -0.733487 -0.20892 4.57576e-14 1.83577e-13 -2.18837e-13 -75.3484 29.5702 -0.248033 20.5235 -13.6845 -39.9671 0.131872 -10.2972 1.46313 5.92045e-10 1.51475e-09 -3.01506e-10 1.02585e-09 2.62889e-09 -5.20051e-10 5.92035e-10 1.51475e-09 -3.01496e-10 -7.73091 5.47488 -0.417314 5.92044e-10 1.51475e-09 -3.01501e-10 -2.90554 0.965183 -0.102902 5.92037e-10 1.51475e-09 -3.01505e-10 -10.2786 0.731801 -0.0259123 5.92049e-10 1.51475e-09 -3.01511e-10 -2.22167 -0.733487 0.20892 -2.03217e-16 0.0 -3.88251e-19 6.28284 -63.1825 10.964 -0.183019 31.7179 0.649161 -5.09866 -7.22309 -21.2744 2.03217e-16 0.0 3.88251e-19 -11.3053 -43.0055 -4.50163 0.126229 30.5918 -0.727088 3.94613 -11.3078 12.4112
-14.2845 81.8894 174.72 361.984 -7.8943 -330.139 -3.27129 -29.643 -2.00494 1.86831 -5.08348 -0.245361 -10.0777 6.73876 -8.52214 21.3807 27.1204 -21.2502 -0.0 0.0 0.0 -0.0 0.0 0.0 -3.66108e-16 2.93979e-13 -2.89139e-13 87.9904 29.4474 -25.5385 -15.3414 -8.08937 28.2942 -0.10112 9.03223 1.28012 1.0133e-09 -4.08959e-10 -7.87178e-10 1.746e-09 -7.04005e-10 -1.36945e-09 1.0133e-09 -4.08961e-10 -7.87202e-10 7.73091 5.47488 0.417314 1.01329e-09 -4.08962e-10 -7.87187e-10 2.90554 0.965183 0.102902 1.01329e-09 -4.0896e-10 -7.87193e-10 10.2786 0.731801 0.0259123 1.01329e-09 -4.08964e-10 -7.87184e-10 2.22167 -0.733487 -0.20892 -4.36818e-16 2.93977e-13 -2.8941e-13 -75.6201 29.7333 -0.0763063 20.4674 -13.6109 -39.8281 0.127607 -10.1306 1.43894 1.28196e-09 3.53135e-09 -5.92447e-10 2.22267e-09 6.13079e-09 -1.01729e-09 1.28196e-09 3.53136e-09 -5.92436e-10 -7.73091 5.47488 -0.417314 1.28196e-09 3.53136e-09 -5.92443e-10 -2.90554 0.965183 -0.102902 1.28196e-09 3.53136e-09 -5.92447e-10 -10.2786 0.731801 -0.0259123 1.28196e-09 3.53135e-09 -5.92455e-10 -2.22167 -0.733487 0.20892 -2.03217e-16 0.0 -3.88251e-19 7.00772 -62.7771 12.9616 -0.161631 30.0978 0.623111 -5.64958 -7.7087 -22.8831 2.03217e-16 0.0 3.88251e-19 -11.2644 -42.3419 -4.27126 0.120326 29.9707 -0.710629 3.9346 -11.2664 12.4109
